<svg width="368" height="97" viewBox="0 0 368 97" fill="none" xmlns="http://www.w3.org/2000/svg">
<path d="M0.96 95V2.84H36.544C37.44 2.84 38.4427 2.88266 39.552 2.96799C40.704 3.01066 41.856 3.13866 43.008 3.352C47.8293 4.07733 51.904 5.76266 55.232 8.408C58.6027 11.0107 61.1413 14.296 62.848 18.264C64.5973 22.232 65.472 26.6267 65.472 31.448C65.472 36.2267 64.5973 40.6 62.848 44.568C61.0987 48.536 58.5387 51.8427 55.168 54.488C51.84 57.0907 47.7867 58.7547 43.008 59.48C41.856 59.6507 40.704 59.7787 39.552 59.864C38.4427 59.9493 37.44 59.992 36.544 59.992H10.368V95H0.96ZM10.368 51.032H36.288C37.056 51.032 37.952 50.9893 38.976 50.904C40 50.8187 41.0027 50.6693 41.984 50.456C45.1413 49.7733 47.7227 48.472 49.728 46.552C51.776 44.632 53.2907 42.3493 54.272 39.704C55.296 37.0587 55.808 34.3067 55.808 31.448C55.808 28.5893 55.296 25.8373 54.272 23.192C53.2907 20.504 51.776 18.2 49.728 16.28C47.7227 14.36 45.1413 13.0587 41.984 12.376C41.0027 12.1627 40 12.0347 38.976 11.992C37.952 11.9067 37.056 11.864 36.288 11.864H10.368V51.032ZM79.49 95V2.84H88.898V85.976H132.674V95H79.49ZM144.865 95V2.84H154.273V95H144.865ZM205.46 96.92C199.017 96.92 193.215 95.8533 188.052 93.72C182.932 91.544 178.687 88.472 175.316 84.504C171.988 80.536 169.812 75.8213 168.788 70.36L178.388 68.76C179.924 74.7333 183.167 79.4267 188.116 82.84C193.065 86.2107 198.975 87.896 205.844 87.896C210.367 87.896 214.42 87.192 218.004 85.784C221.588 84.3333 224.404 82.2853 226.452 79.64C228.5 76.9947 229.524 73.8587 229.524 70.232C229.524 67.8427 229.097 65.816 228.244 64.152C227.391 62.4453 226.26 61.0373 224.852 59.928C223.444 58.8187 221.908 57.9013 220.244 57.176C218.58 56.408 216.959 55.7893 215.38 55.32L192.02 48.344C189.204 47.5333 186.601 46.5093 184.212 45.272C181.823 43.992 179.732 42.4773 177.94 40.728C176.191 38.936 174.825 36.8453 173.844 34.456C172.863 32.0667 172.372 29.336 172.372 26.264C172.372 21.0587 173.737 16.5573 176.468 12.76C179.199 8.96266 182.932 6.04 187.668 3.992C192.404 1.944 197.801 0.94133 203.86 0.983994C210.004 0.983994 215.487 2.07199 220.308 4.24799C225.172 6.42399 229.183 9.53866 232.34 13.592C235.497 17.6027 237.588 22.36 238.612 27.864L228.756 29.656C228.116 25.6453 226.644 22.168 224.34 19.224C222.036 16.28 219.092 14.0187 215.508 12.44C211.967 10.8187 208.063 9.98666 203.796 9.94399C199.657 9.94399 195.967 10.648 192.724 12.056C189.524 13.4213 186.985 15.2987 185.108 17.688C183.231 20.0773 182.292 22.808 182.292 25.88C182.292 28.9947 183.145 31.4907 184.852 33.368C186.601 35.2453 188.735 36.7173 191.252 37.784C193.812 38.8507 196.287 39.7253 198.676 40.408L216.724 45.72C218.601 46.232 220.799 46.9787 223.316 47.96C225.876 48.8987 228.351 50.264 230.74 52.056C233.172 53.8053 235.177 56.1093 236.756 58.968C238.335 61.8267 239.124 65.4533 239.124 69.848C239.124 74.1147 238.271 77.9333 236.564 81.304C234.9 84.6747 232.532 87.512 229.46 89.816C226.431 92.12 222.868 93.8693 218.772 95.064C214.719 96.3013 210.281 96.92 205.46 96.92Z" fill="#2874A6"/>
<path d="M277.96 95V2.84H313.544C318.707 2.84 323.208 3.90666 327.048 6.03999C330.888 8.17333 333.875 11.0533 336.008 14.68C338.141 18.264 339.208 22.232 339.208 26.584C339.208 31.5333 337.885 35.9493 335.24 39.832C332.595 43.672 329.053 46.3387 324.616 47.832L324.488 44.696C330.461 46.4027 335.155 49.3893 338.568 53.656C341.981 57.9227 343.688 63.0853 343.688 69.144C343.688 74.4773 342.557 79.0853 340.296 82.968C338.035 86.808 334.856 89.7733 330.76 91.864C326.664 93.9547 321.907 95 316.488 95H277.96ZM287.432 85.976H314.184C317.939 85.976 321.309 85.3147 324.296 83.992C327.283 82.6267 329.629 80.7067 331.336 78.232C333.085 75.7573 333.96 72.7707 333.96 69.272C333.96 65.8587 333.171 62.7867 331.592 60.056C330.013 57.3253 327.859 55.1493 325.128 53.528C322.44 51.864 319.368 51.032 315.912 51.032H287.432V85.976ZM287.432 42.136H313.48C316.424 42.136 319.112 41.4747 321.544 40.152C323.976 38.7867 325.896 36.9307 327.304 34.584C328.755 32.2373 329.48 29.528 329.48 26.456C329.48 22.104 327.965 18.5627 324.936 15.832C321.949 13.1013 318.131 11.736 313.48 11.736H287.432V42.136ZM357.74 95V2.84H367.148V95H357.74Z" fill="#F1C40F"/>
</svg>
